<svg height="180" viewBox="0 0 180 180" width="180" xmlns="http://www.w3.org/2000/svg"><path d="m91.8945312 170.949219c12.9557288 0 23.9583338-1.595052 33.0078128-4.785157v-13.28125c-3.190104 1.432292-7.8125 2.571615-13.867188 3.417969-6.054687.846354-12.3697914 1.269531-18.9453122 1.269531-12.890625 0-24.4303386-2.604166-34.6191407-7.8125-10.1888021-5.208333-18.2454427-12.874348-24.1699219-22.998046-5.9244791-10.123698-8.8867187-22.477214-8.8867187-37.0605472v-.0976563c0-10.0260417 1.5950521-19.2220052 4.7851563-27.5878906 3.1901041-8.3658854 7.6822916-15.5924479 13.4765624-21.6796875 5.7942709-6.0872396 12.6302084-10.7910156 20.5078126-14.1113282 7.8776041-3.3203124 16.5039062-4.9804687 25.8789062-4.9804687 12.890625 0 24.202474 2.4902344 33.935547 7.4707031 9.733073 4.9804688 17.317708 12.0605469 22.753906 21.2402344s8.154297 20.0846354 8.154297 32.7148438v.0976562c0 11.9140625-1.595052 20.865885-4.785156 26.855469-3.190104 5.989583-7.356771 8.984375-12.5 8.984375-3.841146 0-6.966146-1.660157-9.375-4.980469s-3.613282-8.333333-3.613282-15.0390625v-47.5585937h-14.746093v11.9140624h-.78125c-1.822917-4.1666666-4.915365-7.5032552-9.277344-10.0097656-4.3619792-2.5065104-9.1471354-3.7597656-14.3554688-3.7597656-6.640625 0-12.516276 1.7089844-17.6269531 5.1269531-5.1106771 3.4179688-9.1145833 8.1542969-12.0117187 14.2089844s-4.3457032 13.0859375-4.3457032 21.09375v.0976563c0 8.2682291 1.4160157 15.4947912 4.2480469 21.6796872 2.8320313 6.184896 6.8033854 11.002604 11.9140625 14.453125s11.0514323 5.175781 17.8222656 5.175781c6.25 0 11.7675782-1.448567 16.5527348-4.345703 4.785156-2.897135 8.317057-7.307942 10.595703-13.232421h.878906l.292969.878906c1.627604 4.882812 4.443359 9.033203 8.447265 12.451172 4.003907 3.417968 9.065756 5.126953 15.185547 5.126953 6.054688 0 11.523438-1.855469 16.40625-5.566407 4.882813-3.710937 8.740235-9.212239 11.572266-16.503906 2.832031-7.291666 4.248047-16.3411456 4.248047-27.1484372v-.0976563c0-15.2994792-3.385417-28.531901-10.15625-39.6972656-6.770834-11.1653646-16.048177-19.7753907-27.832032-25.8300781-11.783854-6.0546876-25.227864-9.0820313-40.3320308-9.0820313-11.8489583 0-22.7050781 1.96940104-32.5683593 5.9082031-9.8632813 3.9388021-18.3919271 9.5214844-25.5859375 16.7480469s-12.7441406 15.8203125-16.6503906 25.78125-5.85937505 20.9960937-5.85937505 33.1054687v.0976563c0 13.0859375 2.03450525 24.6907555 6.10351565 34.8144535s9.7981771 18.636067 17.1875 25.537109 16.0807291 12.125651 26.0742187 15.673828 20.9472657 5.322266 32.8613281 5.322266zm-5.1757812-53.710938c-4.2317708 0-7.8938802-1.106771-10.9863281-3.320312-3.0924479-2.213542-5.46875-5.354818-7.1289063-9.423828-1.6601562-4.069011-2.4902344-8.9680993-2.4902344-14.697266v-.0976562c0-5.6640626.8300782-10.514323 2.4902344-14.5507813 1.6601563-4.0364583 4.0364584-7.1289063 7.1289063-9.2773437 3.0924479-2.1484376 6.8196614-3.2226563 11.1816406-3.2226563 6.5755208 0 11.8489583 2.4414063 15.8203125 7.3242187 3.971354 4.8828126 5.957031 11.4908855 5.957031 19.8242188v.0976562c0 8.3333334-1.985677 14.9739588-5.957031 19.9218748-3.9713542 4.947917-9.3098958 7.421875-16.015625 7.421875z"/></svg>