<svg height="180" viewBox="0 0 180 180" width="180" xmlns="http://www.w3.org/2000/svg"><path d="m82.2857425 180h15.4286495c2.1883846 0 4.048541-.619685 5.58047-1.859055 1.531929-1.239371 2.553215-2.916159 3.063858-5.030366l4.486204-19.137287c1.823704-.583239 3.574501-1.221155 5.252392-1.913747 1.677742-.692577 3.282577-1.403384 4.814506-2.132422l16.741635 10.279451c1.750798 1.093557 3.611029 1.549205 5.580695 1.366946 1.969516-.182259 3.683786-1.002427 5.142809-2.460503l10.832862-10.826251c1.53178-1.530968 2.388877-3.298901 2.571292-5.3038.182415-2.004898-.346454-3.918645-1.586609-5.74124l-10.176257-16.621936c.802418-1.530998 1.531929-3.116716 2.188534-4.757156.656456-1.64029 1.240005-3.262365 1.750648-4.866224l19.367832-4.592992c2.115478-.437471 3.756841-1.42163 4.924089-2.952478 1.167099-1.530997 1.750648-3.426528 1.750648-5.6865932v-15.0911634c0-2.1141917-.583549-3.9367862-1.750648-5.4677836-1.167248-1.5309973-2.808611-2.5152312-4.924089-2.9527016l-19.148889-4.702285c-.583699-1.8225945-1.240229-3.5722524-1.969591-5.2489737-.729511-1.6768705-1.386042-3.1714369-1.969591-4.483699l10.176258-16.9500395c1.167098-1.8225945 1.677741-3.6999102 1.531929-5.631947-.145962-1.9318875-.984908-3.6633299-2.516837-5.1943272l-11.051581-10.8262742c-1.531929-1.3851241-3.191519-2.1870537-4.97877-2.4057889-1.78725-.2187353-3.592727.1457986-5.416431 1.0936015l-17.069938 10.4981713c-1.458873-.7290676-3.027256-1.4399198-4.705147-2.1325565-1.677741-.6924874-3.464992-1.3304029-5.361751-1.9137467l-4.486204-19.46534536c-.510643-2.11419173-1.531929-3.79098766-3.063858-5.03038777s-3.3920854-1.85910017-5.58047-1.85910017h-15.4286495c-2.1885341 0-4.0486909.61970006-5.5804705 1.85910017-1.531929 1.23940011-2.5167619 2.91619604-2.9544986 5.03038777l-4.595787 19.24675946c-1.7507973.5831944-3.4832934 1.22111-5.1974882 1.9137467-1.7143442.6924873-3.3374808 1.4396959-4.8694098 2.2416255l-16.9603544-10.3886544c-3.7933694-2.0413298-7.2948894-1.603934-10.5045601 1.3121874l-11.0518055 10.8262742c-1.531929 1.5309973-2.3707998 3.2624397-2.5166125 5.1943272-.145962 1.9320368.364681 3.8093525 1.531929 5.631947l10.1762575 16.9500395c-.5835493 1.3122621-1.221853 2.8068285-1.9149112 4.483699-.6930582 1.6767213-1.331362 3.4263792-1.9149113 5.2489737l-19.1489333 4.702285c-2.11549326.4374704-3.77506808 1.4217043-4.97872445 2.9527016-1.20364143 1.5309974-1.80546215 3.3535919-1.80546215 5.4677836v15.0911634c0 2.2600652.60182072 4.1555962 1.80546215 5.6865932 1.20365637 1.530848 2.86323119 2.515007 4.97872445 2.952478l19.3678764 4.592992c.4375872 1.603859 1.00291 3.225934 1.6959682 4.866224.6930582 1.64044 1.4042682 3.226158 2.1336302 4.757156l-10.1762575 16.621936c-1.240005 1.822595-1.750648 3.736342-1.531929 5.74124.2188683 2.004899 1.0578138 3.772832 2.5168365 5.3038l10.8328625 10.826251c1.4588733 1.458076 3.1731428 2.278244 5.1428085 2.460503 1.9695163.182259 3.8661263-.273389 5.68983-1.366946l16.7418596-10.279451c1.4588733.729038 3.045482 1.439845 4.7598262 2.132422 1.7141948.692592 3.4466909 1.330508 5.1974882 1.913747l4.595787 19.137287c.4377367 2.114207 1.4225696 3.790995 2.9544986 5.030366 1.5317796 1.23937 3.3919364 1.859055 5.5804705 1.859055zm7.7690045-59.927123c-5.5441667 0-10.5958423-1.366909-15.1550268-4.100726-4.5593339-2.733966-8.1885146-6.379155-10.8875423-10.935567-2.6990276-4.556561-4.0485414-9.6051642-4.0485414-15.1458098 0-5.4677836 1.3495138-10.4617403 4.0485414-14.9818703 2.6990277-4.5199807 6.3282084-8.1469543 10.8875423-10.8809207 4.5591845-2.7338172 9.6108601-4.1007257 15.1550268-4.1007257 5.471111 0 10.486333 1.3669085 15.045667 4.1007257 4.559185 2.7339664 8.188365 6.36094 10.887543 10.8809207 2.699027 4.52013 4.048541 9.5140867 4.048541 14.9818703 0 5.5406456-1.349514 10.5892488-4.048541 15.1458098-2.699178 4.556412-6.328358 8.201601-10.887543 10.935567-4.559334 2.733817-9.574556 4.100726-15.045667 4.100726z"/></svg>