<svg height="180" viewBox="0 0 180 180" width="180" xmlns="http://www.w3.org/2000/svg"><g fill="none" fill-rule="evenodd"><g transform="translate(1 2)"><path d="m20.0011173 82c2.6592179 0 5.1569833-.4193401 7.4932961-1.2580202 2.3363129-.8386801 4.4351955-2.0314696 6.2966481-3.5783684 1.8614525-1.5468989 3.3810055-3.3826765 4.5586592-5.5073328h.2279329v9.2813933h12.4223464v-40.5362054c0-3.9138405-.9877095-7.3244729-2.9631285-10.2318973s-4.7486033-5.162542-8.3195531-6.7653529c-3.5709497-1.6028109-7.8067039-2.4042163-12.7072625-2.4042163-4.9005587 0-9.1363129.7827681-12.7072626 2.3483043s-6.3631285 3.6995112-8.37653632 6.4019248c-2.01340782 2.7024137-3.17206704 5.7496181-3.47597765 9.1416132l-.05698324.6150321h11.62458101l.1139665-.503208c.5318436-2.3483043 1.8709497-4.2679499 4.0173184-5.7589368s4.9860335-2.2364803 8.5189944-2.2364803c3.8368715 0 6.7810056.9225481 8.8324023 2.7676444 2.0513966 1.8450962 3.0770949 4.3890926 3.0770949 7.631989l-.000547 4.4045243-16.2966597.9630284c-7.0659218.4100214-12.54581003 2.1153376-16.43966478 5.1159487-3.89385475 3.000611-5.84078212 7.0728689-5.84078212 12.2167736v.111824c0 3.5038191.83575419 6.5976168 2.50726257 9.2813932 1.67150838 2.6837763 4.00782123 4.7711579 7.00893855 6.2621448 3.00111728 1.4909869 6.49608938 2.2364803 10.48491618 2.2364803zm2.456399-11c-3.1590414 0-5.6917211-.7476725-7.5980392-2.2430175s-2.8594771-3.5327525-2.8594771-6.1122226v-.1121509c0-2.5047029.953159-4.5140727 2.8594771-6.0281095s4.6205519-2.3832061 8.1427015-2.6075078l13.9972985-.8969917.0005229 4.5979705c0 2.5420865-.6354394 4.8318335-1.9063181 6.8692411-1.2708787 2.0374075-3.0047204 3.6355575-5.201525 4.7944498-2.1968047 1.1588924-4.6750182 1.7383386-7.4346406 1.7383386zm70.703774 11c5.0053764 0 9.3709677-1.2509107 13.0967747-3.7527322 3.725806-2.5018215 6.614247-6.0398452 8.665322-10.6140711 2.051075-4.5742258 3.076613-9.9979508 3.076613-16.2711748v-.056011c0-6.273224-1.034946-11.6876138-3.104839-16.2431694-2.069892-4.5555555-4.948924-8.0749089-8.637096-10.5580601-3.688173-2.4831512-8.0161295-3.7247268-12.9838715-3.7247268-4.2150537 0-7.9502688.9895265-11.2056451 2.9685793-3.2553764 1.9790528-5.7674731 4.704918-7.5362903 8.1775956h-.2822581v-31.9262295h-12.25v80.8237705h12.25v-9.9699454h.2822581c1.7688172 3.435337 4.2432795 6.1518671 7.4233871 8.1495902 3.1801075 1.9977231 6.9153225 2.9965847 11.2056451 2.9965847zm-3.1035286-10c-3.1191335 0-5.8916967-.8446759-8.3176895-2.5340278-2.4259928-1.6893518-4.322503-4.0715278-5.6895307-7.1465278s-2.0505415-6.6814814-2.0505415-10.8194444v-.0569444c0-4.137963.6931408-7.7349537 2.0794224-10.7909723 1.3862816-3.0560185 3.2827918-5.4287037 5.6895307-7.1180555 2.4067388-1.6893519 5.1696751-2.5340278 8.2888086-2.5340278 3.2731649 0 6.1034898.8256944 8.4909748 2.4770833 2.3874845 1.6513889 4.2262335 4.0050926 5.5162455 7.0611111 1.290012 3.0560186 1.935018 6.6909723 1.935018 10.9048612v.0569444c0 4.2138889-.645006 7.8678241-1.935018 10.9618056-1.290012 3.0939814-3.128761 5.4571759-5.5162455 7.0895833-2.387485 1.6324074-5.2178099 2.4486111-8.4909748 2.4486111zm63.2468603 10c4.802521 0 9.047269-.92086 12.734244-2.7625801 3.686974-1.84172 6.655462-4.3345532 8.905462-7.4784995s3.60189-6.6692589 4.055672-10.5759378v-.3906679h-11.798319l-.056723.4464776c-.756303 3.1625496-2.297269 5.7204941-4.622899 7.6738335s-5.379202 2.9300091-9.160714 2.9300091c-3.176471 0-5.946429-.799939-8.309874-2.399817-2.363446-1.599878-4.206933-3.9159804-5.530463-6.9483074-1.323529-3.0323269-1.985294-6.6878621-1.985294-10.9666057v-.0558096c0-4.1671242.652311-7.7761513 1.956933-10.8270815 1.304622-3.0509301 3.138656-5.4042391 5.502101-7.0599268s5.114496-2.4835315 8.253151-2.4835315c4.008404 0 7.156513 1.0510826 9.444328 3.1532479s3.753151 4.5856969 4.396008 7.4505947l.113446.5022873h11.741596l-.056722-.4464776c-.340337-3.6834401-1.569328-7.1064349-3.686975-10.2689845-2.117647-3.1625495-5.038866-5.7018908-8.763656-7.6180237-3.72479-1.916133-8.139706-2.8741995-13.244748-2.8741995-5.672268 0-10.62605 1.237115-14.861344 3.7113449-4.235294 2.47423-7.515756 5.9809393-9.841387 10.5201281-2.32563 4.5391888-3.488445 9.915523-3.488445 16.1290028v.0558097c0 6.2506861 1.143908 11.6642269 3.431723 16.2406221s5.558823 8.1110094 9.813025 10.6038426 9.27416 3.7392498 15.059874 3.7392498z" fill="#000" fill-rule="nonzero"/><path d="m0 104.245453 179-.245453" stroke="#000" stroke-dasharray="20" stroke-width="14"/></g><path d="m90 133 42 47h-84z" fill="#000" transform="matrix(1 0 0 -1 0 313)"/></g></svg>