<svg height="824" viewBox="0 0 824 824" width="824" xmlns="http://www.w3.org/2000/svg"><g fill="none" fill-rule="evenodd"><path d="m453.960827 20 113.647402.4069994 2.133712-.0000519c9.047681-.0003301 18.095362-.000787 27.141931.0546682 8.105856.0501395 16.209761.1418289 24.314421.3610871 16.951368.4579427 34.058512 1.4119262 50.825328 4.422504 16.073357 2.8858868 31.045303 7.5651587 45.651623 14.9976456 14.217636 7.2347702 27.226001 16.6854282 38.507879 27.962045 11.281966 11.2740556 20.738005 24.2779062 27.975874 38.4877556 7.429609 14.589122 12.110239 29.542786 14.996782 45.597125 3.014822 16.762396 3.970458 33.862461 4.427516 50.816169.220149 8.095413.312802 16.192801.360935 24.28791.05588 9.744735.05577 19.48947.05577 29.233209v310.799868c0 9.757787.000109 19.515574-.055746 29.269122-.048165 8.110407-.140848 16.219845-.360069 24.330061-.457966 16.967478-1.41299 34.088846-4.425454 50.869936-2.889015 16.090272-7.570658 31.077224-15.006579 45.695847-7.239915 14.231542-16.696714 27.25289-27.981211 38.545385-11.280717 11.292247-24.29121 20.756851-38.511776 28.001484-14.596487 7.436916-29.559382 12.120077-45.620727 15.009134-16.772872 3.016918-33.88438 3.973566-50.840909 4.432413-8.103087.219216-16.206184.3119-24.310502.361048-9.747743.058757-19.495486.058636-29.243229.058636h-310.282703c-9.766819 0-19.532642.000121-29.298748-.058634-8.122303-.049154-16.24167-.141848-24.361796-.361099-16.986399-.457996-34.128583-1.414037-50.930688-4.429908-16.10914-2.890275-31.114762-7.577124-45.752528-15.0209-14.2490597-7.247424-27.2859231-16.713049-38.5923204-28.007114-11.3046807-11.29235-20.782473-24.315544-28.0364487-38.549581-7.4448023-14.609666-12.1338191-29.586665-15.0267731-45.663348-3.0207124-16.78631-3.9782513-33.912209-4.4371038-50.884151-.2192206-8.109227-.3129077-16.219446-.3620559-24.330893-.0552344-9.170816-.0548889-18.341633-.0546654-27.512612l.0000293-1.799847-.507997-112.428753v-195.954103c0-5.094726.142723-10.851103.2819941-16.559857.1271449-5.211704.2521001-10.38579.2806335-15.038671.0491553-8.10081.1428581-16.20065.3610047-24.295699.4597436-16.940719 1.415137-34.034409 4.432503-50.788595 2.8930323-16.059688 7.5814316-31.020169 15.0306399-45.614645 7.252089-14.209094 16.7264975-27.2104464 28.0288181-38.4845314 11.3070496-11.2796907 24.347341-20.7333853 38.5981387-27.9706221 14.631426-7.4299235 29.631202-12.1091568 45.733957-14.9955863 16.809402-3.0148796 33.958448-3.970085 50.953629-4.4281398 8.12016-.219252 16.239346-.3109503 24.361355-.3610864 9.065403-.055463 18.130806-.0550067 27.196452-.0546765l2.138185.0000519 111.636416-.4069994z" stroke="#000" stroke-width="40"/><path d="m453.99664 0 113.647158.40699852c9.787928 0 19.575855-.00499998 29.363783.0549998 8.244939.05099981 16.487878.14499947 24.730817.36799866 17.952867.48499823 36.064733 1.54199438 53.819602 4.72998278 18.028866 3.23698821 34.807742 8.52296894 51.187621 16.85793864 16.088881 8.1869702 30.809772 18.8809312 43.574677 31.6398848 12.767906 12.7589535 23.468826 27.4759 31.660766 43.5588414 8.332938 16.3629404 13.620899 33.1238794 16.858875 51.1328134 3.192976 17.752936 4.251969 35.85987 4.735965 53.812805.223998 8.23697.318998 16.47594.367997 24.71691.056099 9.782964.056099 19.565928.056099 29.347893v310.799868c0 9.795964 0 19.591929-.056099 29.387893-.048999 8.25097-.143999 16.50094-.366997 24.75091-.484996 17.968935-1.542989 36.094869-4.732965 53.864804-3.239976 18.044934-8.527937 34.837873-16.865875 51.229813-8.19194 16.102942-18.89186 30.836888-31.657766 43.611842-12.765905 12.778953-27.489796 23.488914-43.581677 31.686884-16.370879 8.34097-33.141755 13.631951-51.159622 16.872939-17.762868 3.194988-35.880734 4.254984-53.840601 4.740983-8.242939.222999-16.485878.317998-24.730817.367998-9.787928.059-19.575855.059-29.363783.059h-155.643798v-824z" fill="#000"/></g></svg>